<mxfile host="app.diagrams.net" modified="2020-12-07T11:29:06.754Z" agent="5.0 (Windows NT 10.0; Win64; x64) AppleWebKit/537.36 (KHTML, like Gecko) Chrome/87.0.4280.88 Safari/537.36" etag="XB7-hm1hW-0CvyNGxZpN" version="13.10.9" type="github">
  <diagram id="3Si2CLSEgWOO0PXYoX6O" name="Page-1">
    <mxGraphModel dx="981" dy="579" grid="1" gridSize="10" guides="1" tooltips="1" connect="1" arrows="1" fold="1" page="1" pageScale="1" pageWidth="827" pageHeight="1169" math="0" shadow="0">
      <root>
        <mxCell id="0" />
        <mxCell id="1" parent="0" />
        <mxCell id="Hxqb5XGpgICoUZpSLAT1-1" value="" style="rounded=0;whiteSpace=wrap;html=1;" vertex="1" parent="1">
          <mxGeometry x="160" y="70" width="120" height="60" as="geometry" />
        </mxCell>
        <mxCell id="Hxqb5XGpgICoUZpSLAT1-2" value="域名 -&amp;gt; 租户ID、PortalID 映射：&lt;br&gt;表：BeisenRecruitmentCommon.dbo.UriMapping&lt;br&gt;字段：Uri、PortalId、TenantId" style="text;html=1;strokeColor=none;fillColor=none;align=center;verticalAlign=middle;whiteSpace=wrap;rounded=0;" vertex="1" parent="1">
          <mxGeometry x="360" y="50" width="310" height="70" as="geometry" />
        </mxCell>
      </root>
    </mxGraphModel>
  </diagram>
</mxfile>
